<?xml version="1.0" encoding="utf-8"?>
<!-- Generator: Adobe Illustrator 28.2.0, SVG Export Plug-In . SVG Version: 6.00 Build 0)  --><svg id="Layer_1" style="enable-background:new 0 0 1024 768;" version="1.1" viewBox="300 350 420 70" x="0px" xml:space="preserve" xmlns="http://www.w3.org/2000/svg" xmlns:xlink="http://www.w3.org/1999/xlink" y="0px">
<style type="text/css">
	.st0{fill-rule:evenodd;clip-rule:evenodd;fill:url(#SVGID_1_);}
	.st1{fill-rule:evenodd;clip-rule:evenodd;fill:url(#SVGID_00000016056106104760836430000017283847314047208852_);}
	.st2{fill-rule:evenodd;clip-rule:evenodd;fill:url(#SVGID_00000047037252543948084570000003508948800378179735_);}
	.st3{fill:url(#SVGID_00000010275107859365265300000015521999844992918145_);}
	.st4{fill:url(#SVGID_00000075140628950303552220000006156195792854679991_);}
	.st5{fill:url(#SVGID_00000167357621068599457760000012697865392114031514_);}
	.st6{fill:url(#SVGID_00000111191260106071217860000008794033498365718967_);}
	.st7{fill:url(#SVGID_00000160904415291176424950000001631123514043743654_);}
	.st8{fill:url(#SVGID_00000045603630926077498740000017804210390739596710_);}
	.st9{fill:url(#SVGID_00000134240953601048083920000017595361904768414615_);}
	.st10{fill:url(#SVGID_00000181784905888535702370000013275631632222211259_);}
	.st11{fill:url(#SVGID_00000080186394364369963360000011964211452114332330_);}
	.st12{fill:url(#SVGID_00000054948125149660579630000005763650231115218838_);}
	.st13{fill:url(#SVGID_00000156556422529112889900000010660880833871586709_);}
	.st14{fill:url(#SVGID_00000018920999340935497070000004883309274087264680_);}
</style>
<linearGradient gradientTransform="matrix(1 0 0 -1 0 768)" gradientUnits="userSpaceOnUse" id="SVGID_1_" x1="375.3058" x2="390.4258" y1="404.6382" y2="360.3582">
<stop offset="0" style="stop-color:#56CAEF"/>
<stop offset="1" style="stop-color:#286FB7"/>
</linearGradient>
<path class="st0" d="M366.8,355.2L366.8,355.2c-4.5,2.6-6,8.3-3.4,12.8l18.5,32c2.6,4.4,8.3,6,12.8,3.4l0,0c4.4-2.6,6-8.3,3.4-12.8  l-18.5-32C377,354.1,371.3,352.6,366.8,355.2L366.8,355.2z"/>
<linearGradient gradientTransform="matrix(1 0 0 -1 0 768)" gradientUnits="userSpaceOnUse" id="SVGID_00000018951073235992246680000002150865411917438099_" x1="313.8568" x2="369.4898" y1="388.8739" y2="388.8739">
<stop offset="0" style="stop-color:#56CAEF"/>
<stop offset="1" style="stop-color:#286FB7"/>
</linearGradient>
<path d="  M350,396.4l-10.8-18.6c-1.5-2.6-4.9-3.5-7.4-2c-2.6,1.5-3.5,4.8-2,7.4c5.6,9.8,6.9,7.4,1.4,16.7c-2.6,4.4-8.3,6-12.8,3.4  s-6-8.3-3.4-12.8l18.1-31.4l0.4-0.7c1.7-3,4.9-4.6,8.1-4.7c3.2,0,6.4,1.7,8.1,4.7l0.4,0.7l18.1,31.4c2.6,4.4,1,10.2-3.4,12.8  s-10.2,1-12.8-3.4L350,396.4z" style="fill-rule:evenodd;clip-rule:evenodd;fill:url(#SVGID_00000018951073235992246680000002150865411917438099_);"/>
<linearGradient gradientTransform="matrix(1 0 0 -1 0 768)" gradientUnits="userSpaceOnUse" id="SVGID_00000175310173446470665190000016219979232486258110_" x1="356.9892" x2="339.2291" y1="354.6981" y2="405.5781">
<stop offset="0" style="stop-color:#56CAEF"/>
<stop offset="1" style="stop-color:#286FB7"/>
</linearGradient>
<path d="  M332.4,372.7c2.9,0.6,5.5,2.4,6.9,5.1l10.8,18.6l2,3.5c2.6,4.4,8.3,6,12.8,3.4s6-8.3,3.4-12.8l-18.1-31.4l-0.4-0.7  c-1.7-3-4.9-4.6-8.1-4.7c-3.2,0-6.4,1.7-8.1,4.7l-0.4,0.7l-9.1,15.7C326.4,373,329.5,372.2,332.4,372.7z" style="fill-rule:evenodd;clip-rule:evenodd;fill:url(#SVGID_00000175310173446470665190000016219979232486258110_);"/>
<linearGradient gradientTransform="matrix(1 0 0 -1 0 768)" gradientUnits="userSpaceOnUse" id="SVGID_00000008833173408356865420000015524879446031400637_" x1="421.9911" x2="423.0711" y1="393.5888" y2="359.0288">
<stop offset="0" style="stop-color:#56CAEF"/>
<stop offset="1" style="stop-color:#286FB7"/>
</linearGradient>
<path d="M436.1,370.6c2.3,2.5,3.4,7.5,3.4,15.2v2.1  c0,1.4-0.5,1.8-2,1.8h-20.6c0.1,2.3,0.5,3.8,1.4,4.5s2.8,1,5.5,1H436c0.7,0,1,0.3,1,1v6.8c0,0.6-0.3,1-0.9,1.1  c-3.3,0.7-7.8,1.1-13.5,1.1c-6.9,0-11.6-1.3-13.9-3.8c-2.3-2.6-3.5-7.7-3.5-15.3c0-7.7,1.2-12.8,3.5-15.3c2.3-2.6,6.9-3.8,13.9-3.8  C429.3,366.8,433.8,368.1,436.1,370.6z M416.8,382.5h11.1c0-4.4-1.5-5.8-5.4-5.8C418.5,376.7,416.8,378.1,416.8,382.5z" style="fill:url(#SVGID_00000008833173408356865420000015524879446031400637_);"/>
<linearGradient gradientTransform="matrix(1 0 0 -1 0 768)" gradientUnits="userSpaceOnUse" id="SVGID_00000054981818045055645950000012861396628125192117_" x1="453.7083" x2="454.7882" y1="394.5799" y2="360.0199">
<stop offset="0" style="stop-color:#56CAEF"/>
<stop offset="1" style="stop-color:#286FB7"/>
</linearGradient>
<path d="M457.6,356.8c0.6-0.2,1,0.3,1,1.1v9.5h5.7  c0.7,0,1.1,0.3,1.1,1v6.4c0,0.7-0.4,1.1-1.1,1.1h-5.7v15.9c0,2.7,0.9,3.3,3.8,3.3h2.5c0.7,0,1.1,0.3,1.1,1v6.9  c0,0.7-0.4,1.2-1.1,1.3c-2.6,0.5-4.8,0.7-6.6,0.7c-1.9,0-3.4-0.1-4.5-0.2c-1-0.1-2.1-0.5-3.4-1c-2.4-1.1-3.4-3.6-3.4-7.9v-20.1h-4  c-0.7,0-1.1-0.3-1.1-1.1v-6.4c0-0.7,0.4-1,1.1-1h4v-7c0-0.5,0.3-0.9,0.9-1.1L457.6,356.8z" style="fill:url(#SVGID_00000054981818045055645950000012861396628125192117_);"/>
<linearGradient gradientTransform="matrix(1 0 0 -1 0 768)" gradientUnits="userSpaceOnUse" id="SVGID_00000126281782187063929180000008569931353878152370_" x1="485.0857" x2="486.1657" y1="395.5604" y2="361.0004">
<stop offset="0" style="stop-color:#56CAEF"/>
<stop offset="1" style="stop-color:#286FB7"/>
</linearGradient>
<path d="M502.1,378.7v22.8c0,1.1-0.5,1.9-1.6,2.1  c-4.6,0.9-9.6,1.4-15.2,1.4c-2.4,0-4.4-0.1-5.8-0.2s-2.9-0.3-4.4-0.7c-4.3-1.3-5.8-4.2-6.2-10.9c0.1-4.4,1.2-7.4,3.4-8.9  c2.2-1.5,5.9-2.2,11-2.2l7.3-0.1v-1.3c0-2.6-1.7-3.9-5-3.9h-13c-0.6,0-0.9-0.3-0.9-1V369c0-0.6,0.3-0.9,0.9-1.1  c3.6-0.7,7.9-1.1,13-1.1C500,366.9,502.1,371.6,502.1,378.7z M490.6,388.9h-6.2c-3.2,0-4.2,1-4.2,3.4c0,2.6,1.1,3.4,4.7,3.4  c2.3,0,4.2-0.2,5.6-0.5v-6.3H490.6z" style="fill:url(#SVGID_00000126281782187063929180000008569931353878152370_);"/>
<linearGradient gradientTransform="matrix(1 0 0 -1 0 768)" gradientUnits="userSpaceOnUse" id="SVGID_00000009552031108594822270000018302903052113474751_" x1="565.999" x2="567.079" y1="398.0891" y2="363.5291">
<stop offset="0" style="stop-color:#56CAEF"/>
<stop offset="1" style="stop-color:#286FB7"/>
</linearGradient>
<path d="M566.5,366.8c7.1,0,11.8,1.3,14.1,3.8  s3.5,7.6,3.5,15.3c0,7.7-1.2,12.8-3.5,15.3s-7,3.8-14.1,3.8s-11.8-1.3-14.2-3.8c-2.3-2.5-3.4-7.6-3.4-15.3c0-7.7,1.1-12.8,3.4-15.3  C554.7,368.1,559.4,366.8,566.5,366.8z M566.5,376.7c-2.4,0-4.1,0.6-4.9,1.9c-0.7,1.2-1.1,3.6-1.1,7.3s0.4,6.2,1.1,7.3  c0.8,1.2,2.4,1.8,4.9,1.8s4.1-0.6,4.8-1.8c0.8-1.2,1.2-3.6,1.2-7.3s-0.4-6.2-1.2-7.4C570.6,377.3,569,376.7,566.5,376.7z" style="fill:url(#SVGID_00000009552031108594822270000018302903052113474751_);"/>
<linearGradient gradientTransform="matrix(1 0 0 -1 0 768)" gradientUnits="userSpaceOnUse" id="SVGID_00000105398924702122772880000012910206335052844933_" x1="606.4464" x2="607.5264" y1="399.353" y2="364.793">
<stop offset="0" style="stop-color:#56CAEF"/>
<stop offset="1" style="stop-color:#286FB7"/>
</linearGradient>
<path d="M621.1,370.6c2.4,2.5,3.7,7.3,3.7,14.6  c0,7.7-1.1,12.9-3.2,15.7c-2.2,2.8-6.2,4.2-12.1,4.2c-2.9,0-5.5-0.1-7.8-0.4v12.5c0,0.7-0.3,1-1,1h-9.6c-0.7,0-1-0.3-1-1v-47  c0-1.1,0.5-1.7,1.6-1.9c5.6-0.9,10.7-1.4,15-1.4C613.8,366.8,618.7,368.1,621.1,370.6z M601.7,376.7v17.9c1.3,0.2,2.8,0.3,4.7,0.3  c2.9,0,4.8-0.5,5.6-1.7s1.3-3.6,1.3-7.5c0-3.6-0.3-6-1-7.3s-2.3-1.9-5-1.9h-5.6V376.7z" style="fill:url(#SVGID_00000105398924702122772880000012910206335052844933_);"/>
<linearGradient gradientTransform="matrix(1 0 0 -1 0 768)" gradientUnits="userSpaceOnUse" id="SVGID_00000181807880916506328180000002796216268215691150_" x1="636.9372" x2="638.0172" y1="400.3058" y2="365.7458">
<stop offset="0" style="stop-color:#56CAEF"/>
<stop offset="1" style="stop-color:#286FB7"/>
</linearGradient>
<path d="M643.3,356.9c0,3.8-2.4,6.1-6.6,6.1  c-4.3,0-6.8-2.2-6.8-6.1c0-3.8,2.4-6,6.8-6C640.9,350.9,643.3,353.2,643.3,356.9z" style="fill:url(#SVGID_00000181807880916506328180000002796216268215691150_);"/>
<linearGradient gradientTransform="matrix(1 0 0 -1 0 768)" gradientUnits="userSpaceOnUse" id="SVGID_00000098202261830385857180000008583423948332349887_" x1="636.0818" x2="637.162" y1="400.2791" y2="365.7191">
<stop offset="0" style="stop-color:#56CAEF"/>
<stop offset="1" style="stop-color:#286FB7"/>
</linearGradient>
<path d="M641.4,367.1c0.7,0,1,0.3,1,1.1v35.4  c0,0.7-0.3,1.1-1,1.1h-9.5c-0.7,0-1-0.3-1-1.1v-35.4c0-0.7,0.3-1.1,1-1.1H641.4z" style="fill:url(#SVGID_00000098202261830385857180000008583423948332349887_);"/>
<linearGradient gradientTransform="matrix(1 0 0 -1 0 768)" gradientUnits="userSpaceOnUse" id="SVGID_00000116924310392647627310000010400340205918600891_" x1="665.0532" x2="666.1331" y1="401.2055" y2="366.6455">
<stop offset="0" style="stop-color:#56CAEF"/>
<stop offset="1" style="stop-color:#286FB7"/>
</linearGradient>
<path d="M679.4,370.6c2.3,2.5,3.4,7.5,3.4,15.2v2.1  c0,1.4-0.5,1.8-2,1.8h-20.6c0.1,2.3,0.5,3.8,1.4,4.5s2.8,1,5.5,1h12.2c0.7,0,1,0.3,1,1v6.8c0,0.6-0.3,1-0.9,1.1  c-3.3,0.7-7.8,1.1-13.5,1.1c-6.9,0-11.6-1.3-13.9-3.8c-2.3-2.6-3.5-7.7-3.5-15.3c0-7.7,1.2-12.8,3.5-15.3c2.3-2.6,6.9-3.8,13.9-3.8  C672.6,366.8,677.1,368.1,679.4,370.6z M660.1,382.5h11.1c0-4.4-1.5-5.8-5.4-5.8C661.8,376.7,660.1,378.1,660.1,382.5z" style="fill:url(#SVGID_00000116924310392647627310000010400340205918600891_);"/>
<linearGradient gradientTransform="matrix(1 0 0 -1 0 768)" gradientUnits="userSpaceOnUse" id="SVGID_00000119082428654268602390000013215149972094239656_" x1="699.1077" x2="700.1877" y1="402.2486" y2="367.6886">
<stop offset="0" style="stop-color:#56CAEF"/>
<stop offset="1" style="stop-color:#286FB7"/>
</linearGradient>
<path d="M710.3,367.6c0.7,0.1,1.1,0.6,1.1,1.4v6.7  c0,0.7-0.4,1-1.1,1h-6.6c-3,0-4,0.6-4,3.3v23.6c0,0.7-0.3,1.1-1,1.1h-9.6c-0.7,0-1-0.3-1-1.1v-26.7c0-4,1.1-6.7,3.2-8.1  c2.2-1.4,5.4-2.1,9.5-2.1C704.7,366.8,707.9,367.1,710.3,367.6z" style="fill:url(#SVGID_00000119082428654268602390000013215149972094239656_);"/>
<linearGradient gradientTransform="matrix(1 0 0 -1 0 768)" gradientUnits="userSpaceOnUse" id="SVGID_00000120559450619115814840000010638991011454466996_" x1="541.9086" x2="518.1485" y1="414.9276" y2="402.6877">
<stop offset="0" style="stop-color:#56CAEF"/>
<stop offset="0.1646" style="stop-color:#56C5EC"/>
<stop offset="0.3224" style="stop-color:#52BDE7"/>
<stop offset="0.4776" style="stop-color:#4AAFDF"/>
<stop offset="0.6311" style="stop-color:#419ED4"/>
<stop offset="0.7835" style="stop-color:#3688C6"/>
<stop offset="0.933" style="stop-color:#2870B8"/>
<stop offset="0.939" style="stop-color:#286FB7"/>
</linearGradient>
<path d="M526.9,363.1h2.8c0.1,0,0.2,0,0.3,0h14.1  c0.7,0,1-0.3,1-1v-6.4c0-1.3-0.5-1.7-1.7-2.1c-3.5-0.8-8-1.2-13.4-1.2c-8.6,0-14.4,1.8-17.4,5.4s-4.4,10.5-4.4,20.8  c0,0.9,0,1.8,0,2.6C508.5,371.2,516.8,363.1,526.9,363.1z" style="fill:url(#SVGID_00000120559450619115814840000010638991011454466996_);"/>
<linearGradient gradientTransform="matrix(1 0 0 -1 0 768)" gradientUnits="userSpaceOnUse" id="SVGID_00000105415095411541354210000006604753252311057320_" x1="526.2141" x2="527.2941" y1="396.8458" y2="362.2858">
<stop offset="0" style="stop-color:#56CAEF"/>
<stop offset="1" style="stop-color:#286FB7"/>
</linearGradient>
<path d="M530.1,405c5.6,0,10.1-0.4,13.4-1.2  c1.1-0.3,1.7-0.9,1.7-2.1v-6.4c0-0.7-0.3-1-1-1h-14.1c-3.9,0-6.4-1.1-7.7-3.2c-1.2-2.2-1.8-6.3-1.8-12.4s0.6-10.3,1.8-12.4  s3.6-3.1,7.3-3.2h-2.8c-10.1,0-18.3,8.1-18.6,18.1c0.2,8.9,1.3,14.3,4.4,18.2C516.1,403.6,521.3,405,530.1,405z" style="fill:url(#SVGID_00000105415095411541354210000006604753252311057320_);"/>
<linearGradient gradientTransform="matrix(1 0 0 -1 0 768)" gradientUnits="userSpaceOnUse" id="SVGID_00000018232278588615310940000008109478311381780668_" x1="518.6257" x2="526.3057" y1="390.2781" y2="379.7181">
<stop offset="0" style="stop-color:#56CAEF"/>
<stop offset="1" style="stop-color:#286FB7"/>
</linearGradient>
<path d="M530.1,405c5.6,0,10.1-0.4,13.4-1.2  c1.1-0.3,1.7-0.9,1.7-2.1v-6.4c0-0.7-0.3-1-1-1h-14.1c-3.9,0-6.4-1.1-7.7-3.2c-1.2-2.2-1.8-6.3-1.8-12.4s0.6-10.3,1.8-12.4  s3.6-3.1,7.3-3.2h-2.8c-10.1,0-18.3,8.1-18.6,18.1c0.2,8.9,1.3,14.3,4.4,18.2C516.1,403.6,521.3,405,530.1,405z" style="fill:url(#SVGID_00000018232278588615310940000008109478311381780668_);"/>
</svg>